<svg id="STACKIT" version="1.1" viewBox="0 0 125.5883836 25.7397675" xmlns="http://www.w3.org/2000/svg">
<!-- Generator: Adobe Illustrator 30.0.0, SVG Export Plug-In . SVG Version: 2.1.1 Build 123)  -->
<g>
<polygon fill="#fff" points="44.9499925 8.3704552 49.1881911 8.3704552 49.1881911 19.108474 51.1924428 19.108474 51.1924428 8.3704552 55.4140512 8.3704552 55.4140512 6.4833469 44.9499925 6.4833469 44.9499925 8.3704552"></polygon>
<polygon fill="#fff" points="93.9654824 6.4832482 91.6323896 6.4832482 88.3510889 12.0543393 87.856346 12.8184257 88.3483239 13.5537015 91.8358168 19.1083753 94.20288 19.1083753 90.1758112 12.7547807 93.9654824 6.4832482"></polygon>
<rect fill="#fff" height="12.6251271" width="2.0042518" x="100.9523183" y="6.4833469"></rect>
<path d="M62.9053076,6.4833469l-4.6334003,12.6251271h2.1296656l1.4435432-4.0424245.3308161-.9927198,1.5752771-4.2734774c.0221202-.0612504.045623-.1287961.0703108-.2025631.0244903.0735449.0477955.1408684.0699158.201625l3.3512164,9.3095599h2.1280856l-4.6334003-12.6251271h-1.8320299Z" fill="#fff"></path>
<path d="M37.3191022,11.826644l-.000395-.0001234c-1.2989716-.5492535-2.3247977-.9830669-2.3247977-1.98739,0-.787762.7686783-1.6026312,2.0550098-1.6026312,1.3327445,0,2.2770022.8785142,2.2854948.886439l.3880917.3732544,1.0048909-1.7142939-.2247574-.2317194c-.050363-.0518196-1.2572987-1.267865-3.45372-1.267865-2.2951724,0-4.092837,1.5771287-4.092837,3.5904902,0,2.199927,1.8991806,3.0193881,3.4254772,3.6777862,1.3712574.5916671,2.4543592,1.0589078,2.4543592,2.1853365,0,.9535404-.7900086,1.6194188-1.9211034,1.6194188-1.6347253,0-2.7648325-1.1477097-2.7751026-1.158276l-.3406912-.3575036-1.2025906,1.5549591.2306825.2631963c.0592506.067447,1.4832411,1.6516858,4.054324,1.6516858,2.3506705,0,3.9925059-1.4832658,3.9925059-3.6070311,0-2.3724698-1.9710714-3.2059536-3.5548411-3.8757327ZM37.2274612,12.0433285h0v-.0000247.0000247Z" fill="#fff"></path>
<polygon fill="#fff" points="108.6410768 6.4833469 108.6410768 8.3704552 112.8790778 8.3704552 112.8790778 19.108474 114.8835271 19.108474 114.8835271 8.3704552 119.1051354 8.3704552 119.1051354 6.4833469 108.6410768 6.4833469"></polygon>
<path d="M78.5200246,8.2030722c1.9754165,0,3.2414052,1.1779028,3.2538478,1.1896295l.3497763.3367165,1.0977169-1.5309626-.2354226-.2568762c-.1595817-.1699012-1.6424278-1.660203-4.4998889-1.660203-3.4551025,0-6.0812885,2.5893272-6.2529179,6.0774126h-.0165902v.311214c0,.0084432.001185.0164914.001185.0249346s-.001185.0164914-.001185.0249346v.311214h.0165902c.1716294,3.4880854,2.7978154,6.0773879,6.2529179,6.0773879,2.8548935,0,4.3399121-1.4900549,4.5018639-1.6622521l.2334475-.2548271-1.0979144-1.5311848-.3493813.3368646c-.0126401.0118254-1.2786289,1.1897282-3.2540453,1.1897282-2.4288814,0-4.2609113-1.930386-4.2656513-4.4919147.0047401-2.5614053,1.8367699-4.491816,4.2656513-4.491816Z" fill="#fff"></path>
</g>
<polygon fill="#fff" points="10.9553895 6.4351122 9.3951773 13.746432 13.2958102 13.746432 14.1353067 9.8132731 23.1713203 9.8132731 23.8920357 6.4351122 10.9553895 6.4351122"></polygon>
<polygon fill="#fff" points="17.1142645 11.9225549 16.2700327 15.8783585 7.2037578 15.8783585 6.4832482 19.2565194 19.4497445 19.2565194 21.0148974 11.9225549 17.1142645 11.9225549"></polygon>
</svg>